<?xml version="1.0" encoding="utf-8"?>
<!-- Generator: Adobe Illustrator 22.1.0, SVG Export Plug-In . SVG Version: 6.00 Build 0)  -->
<svg version="1.1" id="レイヤー_1" xmlns="http://www.w3.org/2000/svg" xmlns:xlink="http://www.w3.org/1999/xlink" x="0px"
	 y="0px" viewBox="0 0 147 79.4" style="enable-background:new 0 0 147 79.4;" xml:space="preserve">
<style type="text/css">
	.st0{enable-background:new    ;}
	.st1{fill:#333333;}
</style>
<g id="ttl_about" transform="translate(-237 -890)">
	<g class="st0">
		<path class="st1" d="M250.2,901.7h6.3l12.9,60.3h-8l-2.3-11.8h-12l-2.3,11.8h-7.8L250.2,901.7z M258,944l-1.8-9.6
			c-1.2-6.5-2.2-13.5-2.9-20.9c-0.4,3.6-0.8,7.3-1.4,11c-0.6,3.7-1.2,7.7-2,11.8l-1.5,7.7H258z"/>
		<path class="st1" d="M274.7,895.6h7.5v30.5c0.5-1,1.1-1.8,1.6-2.5c0.5-0.7,1.1-1.2,1.6-1.6c1-0.8,2.4-1.2,4.1-1.2
			c1.7,0,3.2,0.4,4.5,1.2c1.2,0.8,2.3,2,3.1,3.7c0.8,1.7,1.4,3.8,1.8,6.4c0.4,2.6,0.6,5.6,0.6,9.2c0,7.3-0.8,12.7-2.3,16.2
			s-4,5.1-7.3,5.1c-1.8,0-3.2-0.4-4.3-1.2c-1.1-0.8-2.1-2.4-3.2-4.6v5.2h-7.5V895.6z M291.6,942c0-5.5-0.4-9.2-1.1-11.2
			c-0.7-2.1-2-3.2-3.8-3.2c-1.7,0-2.9,1.1-3.6,3.2c-0.7,2.1-1.1,5.8-1.1,10.9c0,5.2,0.4,8.8,1.1,10.9c0.7,2.1,1.9,3.2,3.6,3.2
			c1.8,0,3-1,3.8-3.1C291.2,950.9,291.6,947.3,291.6,942z"/>
		<path class="st1" d="M330.2,942.1c0,13.7-4.2,20.5-12.7,20.5c-8.5,0-12.7-6.9-12.7-20.8c0-13.9,4.2-20.9,12.7-20.9
			c2.2,0,4.1,0.4,5.7,1.2c1.6,0.8,2.9,2.1,4,3.9c1,1.7,1.8,3.9,2.3,6.6C329.9,935.3,330.2,938.4,330.2,942.1z M322.4,941.9
			c0-5.3-0.4-9-1.1-11.1c-0.7-2.1-2-3.2-3.8-3.2c-1.8,0-3,1-3.8,3.1c-0.7,2.1-1.1,5.7-1.1,10.9s0.4,8.8,1.1,10.9
			c0.8,2.1,2,3.1,3.8,3.1c1.8,0,3-1,3.7-3.1C322.1,950.7,322.4,947.1,322.4,941.9z"/>
		<path class="st1" d="M337.1,921.6h7.5v27c0.1,2.5,0.4,4.3,1.1,5.4c0.7,1.1,1.8,1.6,3.5,1.6c1.7,0,2.9-0.5,3.6-1.4
			c0.7-1,1-2.7,1-5.2v-3.2v-24.2h7.5v24.2c0,5.7-0.4,9.4-1.2,11.3c-1.7,3.7-5.4,5.5-10.9,5.5c-4.3,0-7.4-1.1-9.2-3.3
			c-1.8-2.2-2.7-5.9-2.7-11.1V921.6z"/>
		<path class="st1" d="M370.5,910.2h7.5v11.3h4.1v5.9H378V962h-7.5v-34.5h-4.1v-5.9h4.1V910.2z"/>
	</g>
</g>
</svg>
