<?xml version="1.0" encoding="utf-8"?>
<!-- Generator: Adobe Illustrator 22.1.0, SVG Export Plug-In . SVG Version: 6.00 Build 0)  -->
<svg version="1.1" id="レイヤー_1" xmlns="http://www.w3.org/2000/svg" xmlns:xlink="http://www.w3.org/1999/xlink" x="0px"
	 y="0px" viewBox="0 0 209.8 79.4" style="enable-background:new 0 0 209.8 79.4;" xml:space="preserve">
<style type="text/css">
	.st0{filter:url(#Program);}
	.st1{enable-background:new    ;}
	.st2{fill:#333333;}
</style>
<filter  filterUnits="userSpaceOnUse" height="157" id="Program" width="278" x="0" y="0">
	<feOffset  dy="2" input="SourceAlpha"></feOffset>
	<feGaussianBlur  result="blur" stdDeviation="10"></feGaussianBlur>
	<feFlood  flood-color="#fff" flood-opacity="0.302"></feFlood>
	<feComposite  in2="blur" operator="in"></feComposite>
	<feComposite  in="SourceGraphic" operator="over"></feComposite>
</filter>
<g id="ttl_program" transform="translate(-130 -2746)">
	<g transform="matrix(1, 0, 0, 1, 130, 2746)" class="st0">
		<g class="st1">
			<path class="st2" d="M0.3,1H11c5.2,0,8.9,1.3,11.2,3.9c2.3,2.6,3.5,6.8,3.5,12.5c0,8-2.4,13.2-7.1,15.5
				c-2.4,1.1-5.8,1.6-10.3,1.6v26.8H0.3V1z M8.4,27.6c3.4,0,5.7-0.7,7-2c1.3-1.4,2-3.8,2-7.3c0-3.6-0.6-6.2-1.9-7.9
				c-1.2-1.7-3.2-2.5-5.9-2.5H8.4V27.6z"/>
			<path class="st2" d="M31.6,20.9H39v5c1.3-2.1,2.5-3.6,3.8-4.5s2.9-1.4,5-1.5v7.8c-0.5-0.1-1-0.1-1.3-0.1c-2.7,0-4.6,0.7-5.7,2.1
				c-1.1,1.4-1.7,3.7-1.7,7.1v24.5h-7.5V20.9z"/>
			<path class="st2" d="M77,41.4c0,13.7-4.2,20.5-12.7,20.5c-8.5,0-12.7-6.9-12.7-20.8c0-13.9,4.2-20.9,12.7-20.9
				c2.2,0,4.1,0.4,5.7,1.2c1.6,0.8,2.9,2.1,4,3.9c1,1.7,1.8,3.9,2.3,6.6C76.8,34.6,77,37.8,77,41.4z M69.3,41.2
				c0-5.3-0.4-9-1.1-11.1c-0.7-2.1-2-3.2-3.8-3.2c-1.8,0-3,1-3.8,3.1c-0.7,2.1-1.1,5.7-1.1,10.9s0.4,8.8,1.1,10.9
				c0.8,2.1,2,3.1,3.8,3.1c1.8,0,3-1,3.7-3.1C68.9,50,69.3,46.4,69.3,41.2z"/>
			<path class="st2" d="M99.7,20.9h7.5v41.7c0,5-0.5,8.5-1.5,10.4c-1.8,3.5-5.5,5.3-11,5.3c-3.6,0-6.5-1-8.5-3.1
				c-2.1-2.1-3.1-4.9-3.1-8.4l0-1.2h7.2c0,4.3,1.6,6.4,4.8,6.4c1.7,0,2.9-0.5,3.6-1.6c0.7-1,1-3.1,1-6.2v-7.8
				c-1.6,3.7-4,5.5-7.3,5.5c-3.4,0-5.9-1.6-7.5-4.9s-2.4-8.4-2.4-15.4c0-7.4,0.8-12.9,2.3-16.4c1.5-3.4,4-5,7.5-5
				c1.7,0,3,0.4,4.1,1.2c1,0.8,2.1,2.2,3.3,4.3V20.9z M99.8,41.5c0-9.7-1.7-14.5-5-14.5c-1.6,0-2.7,1.1-3.5,3.3
				c-0.7,2.2-1.1,5.7-1.1,10.4c0,5.1,0.4,8.8,1.1,11.2c0.8,2.2,2.1,3.3,3.9,3.3c1.7,0,2.9-1,3.6-3C99.4,50.4,99.8,46.8,99.8,41.5z"
				/>
			<path class="st2" d="M115.4,20.9h7.5v5c1.3-2.1,2.5-3.6,3.8-4.5s2.9-1.4,5-1.5v7.8c-0.5-0.1-1-0.1-1.3-0.1
				c-2.7,0-4.6,0.7-5.7,2.1c-1.1,1.4-1.7,3.7-1.7,7.1v24.5h-7.5V20.9z"/>
			<path class="st2" d="M160.4,20.9v40.4h-7.5v-5.2c-1.1,2.2-2.1,3.7-3.2,4.6c-1.1,0.8-2.5,1.2-4.2,1.2c-3.4,0-5.8-1.7-7.4-5.2
				s-2.3-8.8-2.3-16.2c0-7,0.8-12.2,2.3-15.4c1.6-3.3,4-4.9,7.4-4.9c3.1,0,5.5,1.7,7.4,5.2v-4.6H160.4z M143.5,40.9
				c0,5.3,0.4,9,1.1,11.1c0.7,2.1,2,3.2,3.8,3.2c1.7,0,2.9-1.1,3.6-3.3c0.8-2.3,1.1-6,1.1-10.8c0-4.9-0.4-8.5-1.1-10.9
				c-0.8-2.2-2-3.3-3.6-3.3c-1.8,0-3,1-3.8,3.1C143.8,32,143.5,35.6,143.5,40.9z"/>
			<path class="st2" d="M168.8,20.9h7.5v5c2.1-3.8,4.8-5.7,8.2-5.7c3.7,0,6.2,1.9,7.6,5.7c2-3.8,4.8-5.7,8.4-5.7
				c2.8,0,5,0.7,6.5,2.2c1.5,1.5,2.2,3.7,2.2,6.6v32.2h-7.5V34.7c0-3-0.3-5.1-0.9-6.1c-0.5-1.1-1.6-1.6-3.2-1.6
				c-1.8,0-3,0.5-3.7,1.6c-0.6,1.1-0.9,3.1-0.9,6.1v26.6h-7.7V34.7c0-1.4-0.1-2.6-0.2-3.6c-0.1-1-0.4-1.8-0.7-2.4
				c-0.3-0.6-0.8-1-1.3-1.3s-1.2-0.4-2-0.4c-1.7,0-2.9,0.6-3.7,1.8c-0.7,1.2-1.1,3.2-1.1,6v26.6h-7.5V20.9z"/>
		</g>
	</g>
</g>
</svg>
