<?xml version="1.0" encoding="utf-8"?>
<!-- Generator: Adobe Illustrator 22.1.0, SVG Export Plug-In . SVG Version: 6.00 Build 0)  -->
<svg version="1.1" id="レイヤー_1" xmlns="http://www.w3.org/2000/svg" xmlns:xlink="http://www.w3.org/1999/xlink" x="0px"
	 y="0px" viewBox="0 0 374.2 79.4" style="enable-background:new 0 0 374.2 79.4;" xml:space="preserve">
<style type="text/css">
	.st0{enable-background:new    ;}
	.st1{fill:#FFFFFF;}
</style>
<g id="ttl_contact" transform="translate(-532 -5841)">
	<g class="st0">
		<path class="st1" d="M543,5859.7h8.2v46.3c0,4.7-0.7,8.1-2.1,10.2c-2,3-5.3,4.6-9.9,4.6c-2.7,0-5-0.5-6.9-1.6v-8.1
			c2.3,1.4,4.1,2.1,5.4,2.1c3.6,0,5.4-2.5,5.4-7.5v-2.4v-43.6H543z"/>
		<path class="st1" d="M583.9,5900.1c0,13.7-4.2,20.5-12.7,20.5s-12.7-6.9-12.7-20.8s4.2-20.9,12.7-20.9c2.2,0,4.1,0.4,5.7,1.2
			c1.6,0.8,2.9,2.1,4,3.9c1,1.7,1.8,3.9,2.3,6.6C583.7,5893.3,583.9,5896.4,583.9,5900.1z M576.2,5899.9c0-5.3-0.4-9-1.1-11.1
			c-0.7-2.1-2-3.2-3.8-3.2s-3,1-3.8,3.1c-0.7,2.1-1.1,5.7-1.1,10.9s0.4,8.8,1.1,10.9c0.8,2.1,2,3.1,3.8,3.1s3-1,3.7-3.1
			C575.8,5908.7,576.2,5905.1,576.2,5899.9z"/>
		<path class="st1" d="M594.4,5862.4c1.4,0,2.5,0.5,3.5,1.5s1.5,2.2,1.5,3.6s-0.5,2.6-1.5,3.6s-2.2,1.5-3.6,1.5s-2.6-0.5-3.6-1.5
			s-1.4-2.2-1.4-3.6s0.5-2.5,1.5-3.5C591.8,5862.9,593.1,5862.4,594.4,5862.4z M590.9,5879.6h7.5v40.4h-7.5V5879.6z"/>
		<path class="st1" d="M606.8,5879.6h7.5v4.6c2.1-3.5,4.9-5.3,8.3-5.3c3.3,0,5.6,1.3,7,3.9c0.8,1.5,1.2,4.3,1.2,8.5v28.8h-7.5v-27
			c0-2.7-0.3-4.7-1-5.8c-0.7-1.1-1.8-1.7-3.4-1.7c-0.9,0-1.6,0.2-2.2,0.4c-0.6,0.3-1.1,0.8-1.4,1.4c-0.4,0.7-0.6,1.5-0.8,2.6
			s-0.3,2.4-0.3,3.9v26.1h-7.5v-40.4H606.8z"/>
		<path class="st1" d="M686.4,5891.3c0,10.7-1.2,18.2-3.6,22.7c-2.4,4.5-6.3,6.7-11.9,6.7c-5.9,0-10-2.4-12.4-7.2
			c-2.4-4.7-3.6-13.1-3.6-25.1c0-10.7,1.2-18.3,3.5-22.8c2.4-4.5,6.4-6.7,12-6.7c5.1,0,8.8,1.7,11.2,5.2c1.6,2.3,2.8,5.6,3.5,9.9
			C686,5877.9,686.4,5883.7,686.4,5891.3z M677.9,5892.2c0-10.4-0.5-17.4-1.4-20.8s-2.9-5.2-5.7-5.2s-4.8,1.6-5.8,4.7
			c-0.9,3.2-1.4,9.6-1.4,19.1c0,8.8,0.5,14.9,1.5,18.4c1,3.2,2.9,4.8,5.7,4.8c2.7,0,4.6-1.5,5.6-4.5
			C677.3,5905.8,677.9,5900.3,677.9,5892.2z"/>
		<path class="st1" d="M694,5879.6h7.5v27c0.1,2.5,0.4,4.3,1.1,5.4c0.7,1.1,1.8,1.6,3.5,1.6s2.9-0.5,3.6-1.4c0.7-1,1-2.7,1-5.2v-3.2
			v-24.2h7.5v24.2c0,5.7-0.4,9.4-1.2,11.3c-1.7,3.7-5.4,5.5-10.9,5.5c-4.3,0-7.4-1.1-9.2-3.3c-1.8-2.2-2.7-5.9-2.7-11.1v-26.6H694z"
			/>
		<path class="st1" d="M726.5,5879.6h7.5v5c1.3-2.1,2.5-3.6,3.8-4.5s2.9-1.4,5-1.5v7.8c-0.5-0.1-1-0.1-1.3-0.1
			c-2.7,0-4.6,0.7-5.7,2.1c-1.1,1.4-1.7,3.7-1.7,7.1v24.5h-7.5L726.5,5879.6L726.5,5879.6z"/>
		<path class="st1" d="M788.5,5860.7v7.3c-2.1-1-3.8-1.5-5.2-1.5c-1.9,0-3.6,0.5-5,1.4c-1.4,1-2.5,2.4-3.4,4.4s-1.6,4.5-2,7.5
			s-0.6,6.6-0.6,10.8c0,14.9,3.8,22.3,11.4,22.3c1.3,0,2.9-0.4,4.8-1.2v7.5c-2,1.1-4.1,1.6-6.6,1.6c-12.2,0-18.3-10-18.3-29.9
			c0-10.8,1.5-18.8,4.5-24.1c3-5.3,7.5-7.9,13.7-7.9C784.1,5858.9,786.3,5859.5,788.5,5860.7z"/>
		<path class="st1" d="M794.9,5853.6h7.5v66.4h-7.5V5853.6z"/>
		<path class="st1" d="M833.9,5879.6v40.4h-7.5v-5.2c-1.1,2.2-2.1,3.7-3.2,4.6c-1.1,0.8-2.5,1.2-4.2,1.2c-3.4,0-5.8-1.7-7.4-5.2
			s-2.3-8.8-2.3-16.2c0-7,0.8-12.2,2.3-15.4c1.6-3.3,4-4.9,7.4-4.9c3.1,0,5.5,1.7,7.4,5.2v-4.6h7.5V5879.6z M817.1,5899.6
			c0,5.3,0.4,9,1.1,11.1c0.7,2.1,2,3.2,3.8,3.2c1.7,0,2.9-1.1,3.6-3.3c0.8-2.3,1.1-6,1.1-10.8c0-4.9-0.4-8.5-1.1-10.9
			c-0.8-2.2-2-3.3-3.6-3.3c-1.8,0-3,1-3.8,3.1C817.4,5890.7,817.1,5894.3,817.1,5899.6z"/>
		<path class="st1" d="M858,5880.4v7c-1.8-1.4-3.7-2-5.7-2c-0.7,0-1.3,0.1-1.9,0.4c-0.6,0.2-1.1,0.6-1.5,1s-0.8,0.9-1,1.4
			c-0.2,0.6-0.4,1.2-0.4,1.8c0,1.9,1.7,4.2,5.2,6.9c1.4,1.1,2.6,2.1,3.5,3s1.7,1.8,2.1,2.7c1,1.6,1.5,3.7,1.5,6.2
			c0,3.6-1.1,6.5-3.2,8.7c-2.1,2.2-4.9,3.2-8.4,3.2c-2.2,0-4.3-0.6-6.6-1.9v-7.2c2.2,1.6,4.2,2.4,6.1,2.4c3.4,0,5.1-1.7,5.1-5
			c0-1.2-0.3-2.3-0.9-3.2c-0.3-0.4-0.7-1-1.4-1.5s-1.4-1.2-2.3-2c-3.2-2.4-5.3-4.5-6.4-6.2c-1.1-1.7-1.6-3.8-1.6-6.2
			c0-3.3,1-5.9,3-8s4.7-3.1,7.9-3.1C853.7,5878.6,855.9,5879.2,858,5880.4z"/>
		<path class="st1" d="M881.6,5880.4v7c-1.8-1.4-3.7-2-5.7-2c-0.7,0-1.3,0.1-1.9,0.4c-0.6,0.2-1.1,0.6-1.5,1s-0.8,0.9-1,1.4
			c-0.2,0.6-0.4,1.2-0.4,1.8c0,1.9,1.7,4.2,5.2,6.9c1.4,1.1,2.6,2.1,3.5,3s1.7,1.8,2.1,2.7c1,1.6,1.5,3.7,1.5,6.2
			c0,3.6-1.1,6.5-3.2,8.7c-2.1,2.2-4.9,3.2-8.4,3.2c-2.2,0-4.3-0.6-6.6-1.9v-7.2c2.2,1.6,4.2,2.4,6.1,2.4c3.4,0,5.1-1.7,5.1-5
			c0-1.2-0.3-2.3-0.9-3.2c-0.3-0.4-0.7-1-1.4-1.5s-1.4-1.2-2.3-2c-3.2-2.4-5.3-4.5-6.4-6.2c-1.1-1.7-1.6-3.8-1.6-6.2
			c0-3.3,1-5.9,3-8s4.7-3.1,7.9-3.1C877.2,5878.6,879.4,5879.2,881.6,5880.4z"/>
		<path class="st1" d="M896.4,5911c1.3,0,2.4,0.5,3.4,1.4s1.4,2.1,1.4,3.4s-0.5,2.5-1.4,3.4c-1,0.9-2.1,1.4-3.4,1.4
			c-1.3,0-2.4-0.5-3.4-1.4c-0.9-0.9-1.4-2.1-1.4-3.4s0.5-2.4,1.4-3.4S895.1,5911,896.4,5911z M892.5,5859.7h7.9v45.8h-7.9V5859.7z"
			/>
	</g>
</g>
</svg>
