<?xml version="1.0" encoding="utf-8"?>
<!-- Generator: Adobe Illustrator 22.1.0, SVG Export Plug-In . SVG Version: 6.00 Build 0)  -->
<svg version="1.1" id="レイヤー_1" xmlns="http://www.w3.org/2000/svg" xmlns:xlink="http://www.w3.org/1999/xlink" x="0px"
	 y="0px" viewBox="0 0 272.1 79.4" style="enable-background:new 0 0 272.1 79.4;" xml:space="preserve">
<style type="text/css">
	.st0{filter:url(#Facilitators);}
	.st1{enable-background:new    ;}
	.st2{fill:#333333;}
</style>
<filter  filterUnits="userSpaceOnUse" height="157" id="Facilitators" width="335" x="0" y="0">
	<feOffset  dy="2" input="SourceAlpha"></feOffset>
	<feGaussianBlur  result="blur" stdDeviation="10"></feGaussianBlur>
	<feFlood  flood-color="#fff" flood-opacity="0.302"></feFlood>
	<feComposite  in2="blur" operator="in"></feComposite>
	<feComposite  in="SourceGraphic" operator="over"></feComposite>
</filter>
<g id="ttl_facilitators" transform="translate(-130 -4862)">
	<g transform="matrix(1, 0, 0, 1, 130, 4862)" class="st0">
		<g class="st1">
			<path class="st2" d="M1.5,11.7h21.7v6.9H9.6v19.1h12.3v6.9H9.6V72H1.5V11.7z"/>
			<path class="st2" d="M52.2,31.6V72h-7.5v-5.2c-1.1,2.2-2.1,3.7-3.2,4.6c-1.1,0.8-2.5,1.2-4.2,1.2c-3.4,0-5.8-1.7-7.4-5.2
				s-2.3-8.8-2.3-16.2c0-7,0.8-12.2,2.3-15.4c1.6-3.3,4-4.9,7.4-4.9c3.1,0,5.5,1.7,7.4,5.2v-4.6H52.2z M35.3,51.6
				c0,5.3,0.4,9,1.1,11.1c0.7,2.1,2,3.2,3.8,3.2c1.7,0,2.9-1.1,3.6-3.3c0.8-2.3,1.1-6,1.1-10.8c0-4.9-0.4-8.5-1.1-10.9
				c-0.8-2.2-2-3.3-3.6-3.3c-1.8,0-3,1-3.8,3.1C35.7,42.7,35.3,46.3,35.3,51.6z"/>
			<path class="st2" d="M77.2,32.4V40c-1-1.3-2.3-1.9-3.8-1.9c-4.1,0-6.2,4.5-6.2,13.4c0,9.5,2,14.2,6.1,14.2c1.1,0,2.4-0.5,3.8-1.5
				v7c-2,1-4,1.6-6,1.6c-8,0-12-6.8-12-20.5c0-7.3,1-12.6,3-16.1c2-3.5,5.1-5.2,9.2-5.2C73.3,30.9,75.3,31.4,77.2,32.4z"/>
			<path class="st2" d="M87,14.4c1.4,0,2.5,0.5,3.5,1.5c1,1,1.5,2.2,1.5,3.6c0,1.4-0.5,2.6-1.5,3.6c-1,1-2.2,1.5-3.6,1.5
				S84.4,24,83.4,23c-1-1-1.4-2.2-1.4-3.6c0-1.4,0.5-2.5,1.5-3.5C84.5,14.9,85.7,14.4,87,14.4z M83.5,31.6H91V72h-7.5V31.6z"/>
			<path class="st2" d="M99.4,5.6h7.5V72h-7.5V5.6z"/>
			<path class="st2" d="M118.9,14.4c1.4,0,2.5,0.5,3.5,1.5c1,1,1.5,2.2,1.5,3.6c0,1.4-0.5,2.6-1.5,3.6c-1,1-2.2,1.5-3.6,1.5
				s-2.6-0.5-3.6-1.5c-1-1-1.4-2.2-1.4-3.6c0-1.4,0.5-2.5,1.5-3.5C116.3,14.9,117.5,14.4,118.9,14.4z M115.4,31.6h7.5V72h-7.5V31.6z
				"/>
			<path class="st2" d="M132.2,20.2h7.5v11.3h4.1v5.9h-4.1V72h-7.5V37.5h-4.1v-5.9h4.1V20.2z"/>
			<path class="st2" d="M172.2,31.6V72h-7.5v-5.2c-1.1,2.2-2.1,3.7-3.2,4.6c-1.1,0.8-2.5,1.2-4.2,1.2c-3.4,0-5.8-1.7-7.4-5.2
				s-2.3-8.8-2.3-16.2c0-7,0.8-12.2,2.3-15.4c1.6-3.3,4-4.9,7.4-4.9c3.1,0,5.5,1.7,7.4,5.2v-4.6H172.2z M155.3,51.6
				c0,5.3,0.4,9,1.1,11.1c0.7,2.1,2,3.2,3.8,3.2c1.7,0,2.9-1.1,3.6-3.3c0.8-2.3,1.1-6,1.1-10.8c0-4.9-0.4-8.5-1.1-10.9
				c-0.8-2.2-2-3.3-3.6-3.3c-1.8,0-3,1-3.8,3.1C155.7,42.7,155.3,46.3,155.3,51.6z"/>
			<path class="st2" d="M181.6,20.2h7.5v11.3h4.1v5.9H189V72h-7.5V37.5h-4.1v-5.9h4.1V20.2z"/>
			<path class="st2" d="M222.2,52.1c0,13.7-4.2,20.5-12.7,20.5c-8.5,0-12.7-6.9-12.7-20.8c0-13.9,4.2-20.9,12.7-20.9
				c2.2,0,4.1,0.4,5.7,1.2c1.6,0.8,2.9,2.1,4,3.9c1,1.7,1.8,3.9,2.3,6.6C221.9,45.3,222.2,48.4,222.2,52.1z M214.4,51.9
				c0-5.3-0.4-9-1.1-11.1c-0.7-2.1-2-3.2-3.8-3.2c-1.8,0-3,1-3.8,3.1c-0.7,2.1-1.1,5.7-1.1,10.9s0.4,8.8,1.1,10.9
				c0.8,2.1,2,3.1,3.8,3.1c1.8,0,3-1,3.7-3.1C214.1,60.7,214.4,57.1,214.4,51.9z"/>
			<path class="st2" d="M229.1,31.6h7.5v5c1.3-2.1,2.5-3.6,3.8-4.5s2.9-1.4,5-1.5v7.8c-0.5-0.1-1-0.1-1.3-0.1
				c-2.7,0-4.6,0.7-5.7,2.1c-1.1,1.4-1.7,3.7-1.7,7.1V72h-7.5V31.6z"/>
			<path class="st2" d="M267.2,32.4v7c-1.8-1.4-3.7-2-5.7-2c-0.7,0-1.3,0.1-1.9,0.4c-0.6,0.2-1.1,0.6-1.5,1c-0.4,0.4-0.8,0.9-1,1.4
				c-0.2,0.6-0.4,1.2-0.4,1.8c0,1.9,1.7,4.2,5.2,6.9c1.4,1.1,2.6,2.1,3.5,3s1.7,1.8,2.1,2.7c1,1.6,1.5,3.7,1.5,6.2
				c0,3.6-1.1,6.5-3.2,8.7c-2.1,2.2-4.9,3.2-8.4,3.2c-2.2,0-4.3-0.6-6.6-1.9v-7.2c2.2,1.6,4.2,2.4,6.1,2.4c3.4,0,5.1-1.7,5.1-5
				c0-1.2-0.3-2.3-0.9-3.2c-0.3-0.4-0.7-1-1.4-1.5s-1.4-1.2-2.3-2c-3.2-2.4-5.3-4.5-6.4-6.2c-1.1-1.7-1.6-3.8-1.6-6.2
				c0-3.3,1-5.9,3-8c2-2.1,4.7-3.1,7.9-3.1C262.8,30.6,265.1,31.2,267.2,32.4z"/>
		</g>
	</g>
</g>
</svg>
