<?xml version="1.0" encoding="utf-8"?>
<!-- Generator: Adobe Illustrator 22.1.0, SVG Export Plug-In . SVG Version: 6.00 Build 0)  -->
<svg version="1.1" id="レイヤー_1" xmlns="http://www.w3.org/2000/svg" xmlns:xlink="http://www.w3.org/1999/xlink" x="0px"
	 y="0px" viewBox="0 0 150 79.4" style="enable-background:new 0 0 150 79.4;" xml:space="preserve">
<style type="text/css">
	.st0{fill:#333333;}
</style>
<g>
	<path class="st0" d="M0.5,11.7h8L12.1,34l0.6,4l1.3,8.8c0.2,1.5,0.4,2.8,0.6,4.1c0.2,1.2,0.3,2.3,0.4,3.3l0.4,3
		c0.1-0.6,0.1-1.1,0.2-1.6c0.1-0.5,0.1-0.9,0.2-1.2l1.1-7l1.4-9.2c0.1-0.8,0.3-1.6,0.4-2.3s0.2-1.3,0.3-1.9l3.9-22.3h7.6L18.6,72
		h-6.4L0.5,11.7z"/>
	<path class="st0" d="M56.8,52.1c0,13.7-4.2,20.5-12.7,20.5c-8.5,0-12.7-6.9-12.7-20.8c0-13.9,4.2-20.9,12.7-20.9
		c2.2,0,4.1,0.4,5.7,1.2c1.6,0.8,2.9,2.1,4,3.9c1,1.7,1.8,3.9,2.3,6.6S56.8,48.4,56.8,52.1z M49,51.9c0-5.3-0.4-9-1.1-11.1
		c-0.7-2.1-2-3.2-3.8-3.2c-1.8,0-3,1-3.8,3.1c-0.7,2.1-1.1,5.7-1.1,10.9c0,5.2,0.4,8.8,1.1,10.9c0.8,2.1,2,3.1,3.8,3.1
		c1.8,0,3-1,3.7-3.1C48.7,60.7,49,57.1,49,51.9z"/>
	<path class="st0" d="M67.2,14.4c1.4,0,2.5,0.5,3.5,1.5c1,1,1.5,2.2,1.5,3.6c0,1.4-0.5,2.6-1.5,3.6c-1,1-2.2,1.5-3.6,1.5
		S64.6,24,63.6,23c-1-1-1.4-2.2-1.4-3.6c0-1.4,0.5-2.5,1.5-3.5C64.7,14.9,65.9,14.4,67.2,14.4z M63.7,31.6h7.5V72h-7.5V31.6z"/>
	<path class="st0" d="M96.2,32.4V40c-1-1.3-2.3-1.9-3.8-1.9c-4.1,0-6.2,4.5-6.2,13.4c0,9.5,2,14.2,6.1,14.2c1.1,0,2.4-0.5,3.8-1.5v7
		c-2,1-4,1.6-6,1.6c-8,0-12-6.8-12-20.5c0-7.3,1-12.6,3-16.1c2-3.5,5.1-5.2,9.2-5.2C92.3,30.9,94.2,31.4,96.2,32.4z"/>
	<path class="st0" d="M118.1,58.4h7c-0.5,9.5-4.5,14.3-11.7,14.3c-2.2,0-4-0.4-5.6-1.2c-1.5-0.8-2.8-2.1-3.8-3.8
		c-1-1.7-1.8-3.8-2.2-6.4c-0.5-2.6-0.7-5.7-0.7-9.3c0-7.1,1-12.4,3-15.9s5.1-5.2,9.2-5.2c8.1,0,12.1,7.1,12.1,21.4v0.9h-17.1
		c0,8.6,1.7,13,5.2,13C116.5,66.2,118.1,63.6,118.1,58.4z M117.7,47.9c-0.3-4.2-0.8-7-1.4-8.4c-0.7-1.5-1.8-2.2-3.3-2.2
		c-1.5,0-2.6,0.7-3.3,2.2c-0.7,1.3-1.1,4.1-1.4,8.4H117.7z"/>
	<path class="st0" d="M147.6,32.4v7c-1.8-1.4-3.7-2-5.7-2c-0.7,0-1.3,0.1-1.9,0.4c-0.6,0.2-1.1,0.6-1.5,1c-0.4,0.4-0.8,0.9-1,1.4
		c-0.2,0.6-0.4,1.2-0.4,1.8c0,1.9,1.7,4.2,5.2,6.9c1.4,1.1,2.6,2.1,3.5,3s1.7,1.8,2.1,2.7c1,1.6,1.5,3.7,1.5,6.2
		c0,3.6-1.1,6.5-3.2,8.7c-2.1,2.2-4.9,3.2-8.4,3.2c-2.2,0-4.3-0.6-6.6-1.9v-7.2c2.2,1.6,4.2,2.4,6.1,2.4c3.4,0,5.1-1.7,5.1-5
		c0-1.2-0.3-2.3-0.9-3.2c-0.3-0.4-0.7-1-1.4-1.5s-1.4-1.2-2.3-2c-3.2-2.4-5.3-4.5-6.4-6.2c-1.1-1.7-1.6-3.8-1.6-6.2c0-3.3,1-5.9,3-8
		c2-2.1,4.7-3.1,7.9-3.1C143.2,30.6,145.4,31.2,147.6,32.4z"/>
</g>
</svg>
