<?xml version="1.0" encoding="utf-8"?>
<!-- Generator: Adobe Illustrator 22.1.0, SVG Export Plug-In . SVG Version: 6.00 Build 0)  -->
<svg version="1.1" id="レイヤー_1" xmlns="http://www.w3.org/2000/svg" xmlns:xlink="http://www.w3.org/1999/xlink" x="0px"
	 y="0px" viewBox="0 0 245.5 245.4" style="enable-background:new 0 0 245.5 245.4;" xml:space="preserve">
<style type="text/css">
	.st0{fill:#FFFFFF;}
</style>
<g>
	<path d="M139.5,0c-5.9,10-11.6,19.7-17.6,30c-5-10.1-9.7-19.7-14.6-29.8c-2,1-3.8,1.9-5.6,2.8c6.6,13.5,13,26.6,19.8,40.5
		c8.2-14.1,15.8-27.1,23.5-40.4C143,2,141.5,1.1,139.5,0z M188.9,187.7c11.2,3.8,21.1,7.2,31.3,10.7c0.7-2.1,1.3-3.9,2-6
		c-14.2-4.9-27.9-9.6-42.6-14.7c4.2,15.7,8,30.3,12,45.3c2.4-0.7,4.1-1.2,6-1.8C194.7,210.4,192,199.7,188.9,187.7z M43.4,124
		c-13.8-8.1-27-15.7-40.4-23.5c-1.1,2-2,3.6-3.1,5.5c10.1,5.9,19.6,11.5,29.9,17.6c-10.2,5-19.8,9.8-29.8,14.7
		c1,2.1,1.9,3.8,2.8,5.6C16.5,137.2,29.5,130.8,43.4,124z M245.5,139.5c-10.1-5.9-19.8-11.6-30.1-17.6c10.1-4.9,19.7-9.7,29.7-14.6
		c-1-2-1.7-3.7-2.7-5.7c-13.6,6.6-26.7,13-40.6,19.8c14,8.2,27.1,15.8,40.4,23.5C243.5,142.9,244.3,141.5,245.5,139.5z M23.2,53
		c14.2,4.9,28,9.6,42.6,14.6c-4.2-15.7-8-30.2-12-45.3c-2.3,0.7-4.1,1.2-6,1.8c2.9,11.3,5.7,22,8.7,33.6
		C45.4,53.9,35.4,50.5,25.1,47C24.3,49.3,23.8,51,23.2,53z M175.9,65.8c15.7-4.2,30.2-8,45-11.9c-0.5-2.2-0.9-4-1.4-6.1
		c-11.2,2.9-22,5.8-33.7,8.8c3.8-11.1,7.2-21.2,10.8-31.5c-2.2-0.7-3.9-1.2-6-1.8C185.7,37.4,181,51.1,175.9,65.8z M24,197.6
		c11.2-2.9,22-5.7,33.6-8.7c-3.7,11-7.1,21-10.7,31.4c2.3,0.7,4.1,1.2,6,1.8c4.9-14.3,9.6-28,14.6-42.6c-15.8,4.2-30.4,8.1-45.2,12
		C23,193.9,23.4,195.5,24,197.6z M124,201.9c-8,13.8-15.7,26.9-23.5,40.4c2,1.1,3.6,2.1,5.5,3.1c5.9-10,11.5-19.7,17.6-30
		c5.1,10.4,9.7,19.8,14.6,29.7c2.1-1,3.8-1.8,5.7-2.7C137.1,229,130.8,215.8,124,201.9z"/>
	<path class="st0" d="M139.5,0c2,1.1,3.5,2,5.4,3.1c-7.7,13.3-15.3,26.3-23.5,40.4c-6.8-13.9-13.2-27-19.8-40.5
		c1.9-0.9,3.6-1.8,5.6-2.8c4.9,10,9.7,19.7,14.6,29.8C127.9,19.7,133.6,10,139.5,0z"/>
	<path class="st0" d="M188.9,187.7c3.1,11.9,5.9,22.6,8.7,33.6c-1.9,0.6-3.6,1.1-6,1.8c-4-14.9-7.8-29.6-12-45.3
		c14.7,5.1,28.4,9.8,42.6,14.7c-0.7,2.1-1.3,3.9-2,6C210,194.9,200.1,191.6,188.9,187.7z"/>
	<path class="st0" d="M43.4,124c-13.9,6.8-27,13.2-40.5,19.8c-0.9-1.8-1.8-3.5-2.8-5.6c10-4.9,19.6-9.6,29.8-14.7
		c-10.3-6.1-19.8-11.7-29.9-17.6c1-1.8,2-3.5,3.1-5.5C16.5,108.3,29.6,115.9,43.4,124z"/>
	<path class="st0" d="M245.5,139.5c-1.2,2-2,3.4-3.2,5.4c-13.3-7.7-26.4-15.3-40.4-23.5c13.9-6.8,27.1-13.2,40.6-19.8
		c0.9,1.9,1.7,3.7,2.7,5.7c-10,4.9-19.7,9.6-29.7,14.6C225.7,127.9,235.3,133.6,245.5,139.5z"/>
	<path class="st0" d="M23.2,53c0.6-2,1.2-3.7,1.9-6c10.3,3.5,20.3,6.9,31.4,10.6c-3-11.5-5.8-22.3-8.7-33.6c1.9-0.6,3.7-1.1,6-1.8
		c4,15,7.8,29.6,12,45.3C51.2,62.6,37.4,57.8,23.2,53z"/>
	<path class="st0" d="M175.9,65.8c5.1-14.7,9.8-28.5,14.7-42.6c2.1,0.6,3.8,1.2,6,1.8c-3.5,10.4-7,20.5-10.8,31.5
		c11.7-3.1,22.5-5.9,33.7-8.8c0.5,2.1,0.9,4,1.4,6.1C206,57.8,191.6,61.6,175.9,65.8z"/>
	<path class="st0" d="M24,197.6c-0.6-2.1-1.1-3.7-1.7-5.9c14.8-3.9,29.4-7.8,45.2-12c-5,14.5-9.7,28.2-14.6,42.6
		c-1.9-0.6-3.7-1.1-6-1.8c3.5-10.4,6.9-20.4,10.7-31.4C46.1,191.9,35.2,194.7,24,197.6z"/>
	<path class="st0" d="M124,201.9c6.8,13.9,13.2,27,19.8,40.6c-1.9,0.9-3.6,1.7-5.7,2.7c-4.8-9.9-9.5-19.4-14.6-29.7
		c-6,10.3-11.7,19.9-17.6,30c-1.9-1.1-3.5-2-5.5-3.1C108.3,228.8,116,215.7,124,201.9z"/>
</g>
</svg>
