<?xml version="1.0" encoding="utf-8"?>
<!-- Generator: Adobe Illustrator 22.1.0, SVG Export Plug-In . SVG Version: 6.00 Build 0)  -->
<svg version="1.1" id="レイヤー_1" xmlns="http://www.w3.org/2000/svg" xmlns:xlink="http://www.w3.org/1999/xlink" x="0px"
	 y="0px" viewBox="0 0 373 97" style="enable-background:new 0 0 373 97;" xml:space="preserve">
<style type="text/css">
	.st0{fill:#FFFFFF;}
</style>
<g>
	<path class="st0" d="M13.1,18.6h8.2v46.3c0,4.7-0.7,8.1-2.1,10.2c-2,3-5.3,4.6-9.9,4.6c-2.7,0-5-0.5-6.9-1.6V70
		C4.7,71.3,6.5,72,7.7,72c3.6,0,5.4-2.5,5.4-7.5v-2.4V18.6z"/>
	<path class="st0" d="M54,59c0,13.7-4.2,20.5-12.7,20.5c-8.5,0-12.7-6.9-12.7-20.8c0-13.9,4.2-20.9,12.7-20.9c2.2,0,4.1,0.4,5.7,1.2
		c1.6,0.8,2.9,2.1,4,3.9c1,1.7,1.8,3.9,2.3,6.6S54,55.3,54,59z M46.2,58.8c0-5.3-0.4-9-1.1-11.1c-0.7-2.1-2-3.2-3.8-3.2
		c-1.8,0-3,1-3.8,3.1c-0.7,2.1-1.1,5.7-1.1,10.9c0,5.2,0.4,8.8,1.1,10.9c0.8,2.1,2,3.1,3.8,3.1c1.8,0,3-1,3.7-3.1
		C45.9,67.6,46.2,64,46.2,58.8z"/>
	<path class="st0" d="M64.5,21.3c1.4,0,2.5,0.5,3.5,1.5c1,1,1.5,2.2,1.5,3.6c0,1.4-0.5,2.6-1.5,3.6c-1,1-2.2,1.5-3.6,1.5
		s-2.6-0.5-3.6-1.5c-1-1-1.4-2.2-1.4-3.6c0-1.4,0.5-2.5,1.5-3.5C61.9,21.8,63.1,21.3,64.5,21.3z M60.9,38.5h7.5v40.4h-7.5V38.5z"/>
	<path class="st0" d="M76.8,38.5h7.5v4.6c2.1-3.5,4.9-5.3,8.3-5.3c3.3,0,5.6,1.3,7,3.9c0.8,1.5,1.2,4.3,1.2,8.5v28.8h-7.5l0-27
		c0-2.7-0.3-4.7-1-5.8c-0.7-1.1-1.8-1.7-3.4-1.7c-0.9,0-1.6,0.2-2.2,0.4c-0.6,0.3-1.1,0.8-1.4,1.4c-0.4,0.7-0.6,1.5-0.8,2.6
		c-0.2,1.1-0.3,2.4-0.3,3.9v26.1h-7.5V38.5z"/>
	<path class="st0" d="M156.4,50.2c0,10.7-1.2,18.2-3.6,22.7c-2.4,4.5-6.3,6.7-11.9,6.7c-5.9,0-10-2.4-12.4-7.2
		c-2.4-4.7-3.6-13.1-3.6-25.1c0-10.7,1.2-18.3,3.5-22.8c2.4-4.5,6.4-6.7,12-6.7c5.1,0,8.8,1.7,11.2,5.2c1.6,2.3,2.8,5.6,3.5,9.9
		C156,36.8,156.4,42.6,156.4,50.2z M147.9,51.1c0-10.4-0.5-17.4-1.4-20.8c-0.9-3.4-2.9-5.2-5.7-5.2s-4.8,1.6-5.8,4.7
		c-0.9,3.2-1.4,9.6-1.4,19.1c0,8.8,0.5,14.9,1.5,18.4c1,3.2,2.9,4.8,5.7,4.8c2.7,0,4.6-1.5,5.6-4.5
		C147.4,64.7,147.9,59.2,147.9,51.1z"/>
	<path class="st0" d="M162.4,38.5h7.5v27c0.1,2.5,0.4,4.3,1.1,5.4c0.7,1.1,1.8,1.6,3.5,1.6c1.7,0,2.9-0.5,3.6-1.4c0.7-1,1-2.7,1-5.2
		v-3.2V38.5h7.5v24.2c0,5.7-0.4,9.4-1.2,11.3c-1.7,3.7-5.4,5.5-10.9,5.5c-4.3,0-7.4-1.1-9.2-3.3c-1.8-2.2-2.7-5.9-2.7-11.1V38.5z"/>
	<path class="st0" d="M194.9,38.5h7.5v5c1.3-2.1,2.5-3.6,3.8-4.5s2.9-1.4,5-1.5v7.8c-0.5-0.1-1-0.1-1.3-0.1c-2.7,0-4.6,0.7-5.7,2.1
		c-1.1,1.4-1.7,3.7-1.7,7.1v24.5h-7.5V38.5z"/>
	<path class="st0" d="M228.5,18.6h26.4v7.1h-9.1v53.2h-8V25.7h-9.4V18.6z"/>
	<path class="st0" d="M256.8,38.5h7.5v5c1.3-2.1,2.5-3.6,3.8-4.5s2.9-1.4,5-1.5v7.8c-0.5-0.1-1-0.1-1.3-0.1c-2.7,0-4.6,0.7-5.7,2.1
		c-1.1,1.4-1.7,3.7-1.7,7.1v24.5h-7.5V38.5z"/>
	<path class="st0" d="M281.9,21.3c1.4,0,2.5,0.5,3.5,1.5c1,1,1.5,2.2,1.5,3.6c0,1.4-0.5,2.6-1.5,3.6c-1,1-2.2,1.5-3.6,1.5
		s-2.6-0.5-3.6-1.5c-1-1-1.4-2.2-1.4-3.6c0-1.4,0.5-2.5,1.5-3.5C279.3,21.8,280.5,21.3,281.9,21.3z M278.4,38.5h7.5v40.4h-7.5V38.5z
		"/>
	<path class="st0" d="M294.3,12.5h7.5V43c0.5-1,1.1-1.8,1.6-2.5c0.5-0.7,1.1-1.2,1.6-1.6c1-0.8,2.4-1.2,4.1-1.2
		c1.7,0,3.2,0.4,4.5,1.2c1.2,0.8,2.3,2,3.1,3.7c0.8,1.7,1.4,3.8,1.8,6.4s0.6,5.6,0.6,9.2c0,7.3-0.8,12.7-2.3,16.2
		c-1.6,3.4-4,5.1-7.3,5.1c-1.8,0-3.2-0.4-4.3-1.2c-1.1-0.8-2.1-2.4-3.2-4.6v5.2h-7.5V12.5z M311.1,58.9c0-5.5-0.4-9.2-1.1-11.2
		c-0.7-2.1-2-3.2-3.8-3.2c-1.7,0-2.9,1.1-3.6,3.2c-0.7,2.1-1.1,5.8-1.1,10.9c0,5.2,0.4,8.8,1.1,10.9c0.7,2.1,1.9,3.2,3.6,3.2
		c1.8,0,3-1,3.8-3.1C310.8,67.8,311.1,64.2,311.1,58.9z"/>
	<path class="st0" d="M341.4,65.3h7c-0.5,9.5-4.5,14.3-11.7,14.3c-2.2,0-4-0.4-5.6-1.2c-1.5-0.8-2.8-2.1-3.8-3.8
		c-1-1.7-1.8-3.8-2.2-6.4c-0.5-2.6-0.7-5.7-0.7-9.3c0-7.1,1-12.4,3-15.9s5.1-5.2,9.2-5.2c8.1,0,12.1,7.1,12.1,21.4v0.9h-17.1
		c0,8.6,1.7,13,5.2,13C339.9,73.1,341.4,70.5,341.4,65.3z M341.1,54.8c-0.3-4.2-0.8-7-1.4-8.4c-0.7-1.5-1.8-2.2-3.3-2.2
		c-1.5,0-2.6,0.7-3.3,2.2c-0.7,1.3-1.1,4.1-1.4,8.4H341.1z"/>
	<path class="st0" d="M362.3,69.9c1.3,0,2.4,0.5,3.4,1.4s1.4,2.1,1.4,3.4s-0.5,2.5-1.4,3.4c-1,0.9-2.1,1.4-3.4,1.4
		c-1.3,0-2.4-0.5-3.4-1.4c-0.9-0.9-1.4-2.1-1.4-3.4c0-1.3,0.5-2.4,1.4-3.4C359.8,70.3,361,69.9,362.3,69.9z M358.3,18.6h7.9v45.8
		h-7.9V18.6z"/>
</g>
</svg>
