<?xml version="1.0" encoding="utf-8"?>
<!-- Generator: Adobe Illustrator 22.1.0, SVG Export Plug-In . SVG Version: 6.00 Build 0)  -->
<svg version="1.1" id="レイヤー_1" xmlns="http://www.w3.org/2000/svg" xmlns:xlink="http://www.w3.org/1999/xlink" x="0px"
	 y="0px" viewBox="0 0 154.1 97" style="enable-background:new 0 0 154.1 97;" xml:space="preserve">
<style type="text/css">
	.st0{fill:#FFFFFF;}
</style>
<g>
	<path class="st0" d="M2.1,18.4H10l4.1,28l0.7,4.1c0.3,2.2,0.5,4.3,0.7,6.1l0.4,5.1c0,0.1,0.1,0.4,0.1,0.7c0,0.3,0.1,0.8,0.1,1.3
		l0.2-2c0.3-3.4,0.6-6.5,1-9.4c0.4-2.9,0.7-5.5,1.2-7.9l4.3-26.1H29l4.1,25.4c0.6,3.8,1.1,7.2,1.5,10.4c0.4,3.2,0.7,6.3,1,9.2
		c0.3-3.1,0.6-6,0.9-8.9c0.3-2.9,0.7-5.7,1-8.4l0.6-4l3.5-23.6h7.8L38.6,78.7h-6.3l-4.3-26.1c0-0.1-0.1-0.5-0.2-1.3
		c-0.1-0.8-0.3-1.8-0.5-3.2l-0.8-6c-0.1-0.5-0.1-1.2-0.3-2.1s-0.2-2.1-0.4-3.6l-0.2-2.5c-0.1,0.6-0.1,1.1-0.2,1.6
		c-0.1,0.4-0.1,0.8-0.1,1.1c-0.1,1.7-0.2,3.1-0.3,4c-0.1,1-0.2,1.5-0.2,1.7l-0.8,5.8c-0.2,1.3-0.3,2.4-0.4,3.1
		c-0.1,0.8-0.2,1.2-0.2,1.4l-4.4,26.1h-6.5L2.1,18.4z"/>
	<path class="st0" d="M76.1,58.8c0,13.7-4.2,20.5-12.7,20.5c-8.5,0-12.7-6.9-12.7-20.8c0-13.9,4.2-20.9,12.7-20.9
		c2.2,0,4.1,0.4,5.7,1.2c1.6,0.8,2.9,2.1,4,3.9c1,1.7,1.8,3.9,2.3,6.6S76.1,55.1,76.1,58.8z M68.4,58.6c0-5.3-0.4-9-1.1-11.1
		c-0.7-2.1-2-3.2-3.8-3.2c-1.8,0-3,1-3.8,3.1c-0.7,2.1-1.1,5.7-1.1,10.9c0,5.2,0.4,8.8,1.1,10.9c0.8,2.1,2,3.1,3.8,3.1
		c1.8,0,3-1,3.7-3.1C68,67.4,68.4,63.8,68.4,58.6z"/>
	<path class="st0" d="M83.1,38.3h7.5v5c1.3-2.1,2.5-3.6,3.8-4.5s2.9-1.4,5-1.5v7.8c-0.5-0.1-1-0.1-1.3-0.1c-2.7,0-4.6,0.7-5.7,2.1
		c-1.1,1.4-1.7,3.7-1.7,7.1v24.5h-7.5V38.3z"/>
	<path class="st0" d="M104.6,12.3h7.5v43.9l9.5-18h8.4l-10.3,18l11.7,22.4h-8.8l-10.5-21.5v21.5h-7.5V12.3z"/>
	<path class="st0" d="M152.2,39.1v7c-1.8-1.4-3.7-2-5.7-2c-0.7,0-1.3,0.1-1.9,0.4c-0.6,0.2-1.1,0.6-1.5,1c-0.4,0.4-0.8,0.9-1,1.4
		c-0.2,0.6-0.4,1.2-0.4,1.8c0,1.9,1.7,4.2,5.2,6.9c1.4,1.1,2.6,2.1,3.5,3s1.7,1.8,2.1,2.7c1,1.6,1.5,3.7,1.5,6.2
		c0,3.6-1.1,6.5-3.2,8.7c-2.1,2.2-4.9,3.2-8.4,3.2c-2.2,0-4.3-0.6-6.6-1.9v-7.2c2.2,1.6,4.2,2.4,6.1,2.4c3.4,0,5.1-1.7,5.1-5
		c0-1.2-0.3-2.3-0.9-3.2c-0.3-0.4-0.7-1-1.4-1.5s-1.4-1.2-2.3-2c-3.2-2.4-5.3-4.5-6.4-6.2c-1.1-1.7-1.6-3.8-1.6-6.2c0-3.3,1-5.9,3-8
		c2-2.1,4.7-3.1,7.9-3.1C147.8,37.3,150,37.9,152.2,39.1z"/>
</g>
</svg>
