<?xml version="1.0" encoding="utf-8"?>
<!-- Generator: Adobe Illustrator 22.1.0, SVG Export Plug-In . SVG Version: 6.00 Build 0)  -->
<svg version="1.1" id="レイヤー_1" xmlns="http://www.w3.org/2000/svg" xmlns:xlink="http://www.w3.org/1999/xlink" x="0px"
	 y="0px" viewBox="0 0 136 97" style="enable-background:new 0 0 136 97;" xml:space="preserve">
<style type="text/css">
	.st0{enable-background:new    ;}
	.st1{fill:#FFFFFF;}
</style>
<g id="ttl_asile" transform="translate(-320 -7904)">
	<g class="st0">
		<path class="st1" d="M333.2,7922.7h6.3l12.9,60.3h-8l-2.3-11.8h-12l-2.3,11.8h-7.8L333.2,7922.7z M341,7965l-1.8-9.6
			c-1.2-6.5-2.2-13.5-2.9-20.9c-0.4,3.6-0.8,7.3-1.4,11c-0.6,3.7-1.2,7.7-2,11.8l-1.5,7.7H341z"/>
		<path class="st1" d="M377.4,7923.9v7.9c-2.5-1.8-4.7-2.7-6.7-2.7c-2.1,0-3.9,0.8-5.2,2.3c-1.4,1.4-2,3.3-2,5.7
			c0,2.1,0.5,3.9,1.4,5.4c0.5,0.8,1.3,1.8,2.4,3.1c1.1,1.3,2.6,2.8,4.4,4.6c3.3,3.4,5.6,6.3,6.8,8.7c1.2,2.4,1.8,5.3,1.8,8.7
			c0,4.7-1.3,8.5-3.9,11.5c-2.6,2.9-6,4.4-10.1,4.4c-3.5,0-6.4-1-8.9-2.9v-8c2.9,2.1,5.5,3.2,7.9,3.2c2.2,0,3.9-0.7,5.2-2.2
			c1.2-1.5,1.9-3.5,1.9-6c0-2.2-0.5-4.2-1.4-5.9c-0.5-0.8-1.2-1.8-2.1-2.9c-0.9-1.1-2-2.3-3.3-3.6c-2.1-2-3.8-3.8-5.1-5.4
			c-1.4-1.6-2.4-2.9-3-4.1c-1.2-2.3-1.9-5.2-1.9-8.7c0-4.7,1.2-8.5,3.7-11.2c2.5-2.8,5.8-4.2,10-4.2
			C372,7921.9,374.8,7922.6,377.4,7923.9z"/>
		<path class="st1" d="M387.1,7922.7h8.1v60.3h-8.1V7922.7z"/>
		<path class="st1" d="M404.5,7922.7h8.1v53.4h13.3v6.9h-21.4V7922.7z"/>
		<path class="st1" d="M431,7922.7h21.6v6.9h-13.5v19.1h12v6.9h-12v20.6h13.5v6.9H431V7922.7z"/>
	</g>
</g>
</svg>
