<?xml version="1.0" encoding="utf-8"?>
<!-- Generator: Adobe Illustrator 22.1.0, SVG Export Plug-In . SVG Version: 6.00 Build 0)  -->
<svg version="1.1" id="レイヤー_1" xmlns="http://www.w3.org/2000/svg" xmlns:xlink="http://www.w3.org/1999/xlink" x="0px"
	 y="0px" viewBox="0 0 308.7 97" style="enable-background:new 0 0 308.7 97;" xml:space="preserve">
<style type="text/css">
	.st0{enable-background:new    ;}
	.st1{fill:#FFFFFF;}
</style>
<g id="ttl_about" transform="translate(-487 -1160)">
	<g class="st0">
		<path class="st1" d="M490.1,1178.7h7.9l4.1,28l0.7,4.1c0.3,2.2,0.5,4.3,0.7,6.1l0.4,5.1c0,0.1,0.1,0.4,0.1,0.7
			c0,0.3,0.1,0.8,0.1,1.3l0.2-2c0.3-3.4,0.6-6.5,1-9.4c0.4-2.9,0.7-5.5,1.2-7.9l4.3-26.1h6.2l4.1,25.4c0.6,3.8,1.1,7.2,1.5,10.4
			c0.4,3.2,0.7,6.3,1,9.2c0.3-3.1,0.6-6,0.9-8.9c0.3-2.9,0.7-5.7,1-8.4l0.6-4l3.5-23.6h7.8l-10.7,60.3h-6.3l-4.3-26.1
			c0-0.1-0.1-0.5-0.2-1.3c-0.1-0.8-0.3-1.8-0.5-3.2l-0.8-6c-0.1-0.5-0.1-1.2-0.3-2.1s-0.2-2.1-0.4-3.6l-0.2-2.5
			c-0.1,0.6-0.1,1.1-0.2,1.6c-0.1,0.4-0.1,0.8-0.1,1.1c-0.1,1.7-0.2,3.1-0.3,4c-0.1,1-0.2,1.5-0.2,1.7l-0.8,5.8
			c-0.2,1.3-0.3,2.4-0.4,3.1c-0.1,0.8-0.2,1.2-0.2,1.4l-4.4,26.1h-6.5L490.1,1178.7z"/>
		<path class="st1" d="M541.6,1172.6h7.5v30.6c2.1-3.5,4.9-5.3,8.3-5.3c3.3,0,5.6,1.3,7,3.9c0.8,1.5,1.2,4.3,1.2,8.5v28.8h-7.5l0-27
			c0-2.7-0.3-4.7-1-5.8c-0.7-1.1-1.8-1.7-3.4-1.7c-0.9,0-1.6,0.2-2.2,0.4c-0.6,0.3-1.1,0.8-1.4,1.4c-0.4,0.7-0.6,1.5-0.8,2.6
			c-0.2,1.1-0.3,2.4-0.3,3.9v26.1h-7.5V1172.6z"/>
		<path class="st1" d="M597.9,1219.1c0,13.7-4.2,20.5-12.7,20.5c-8.5,0-12.7-6.9-12.7-20.8c0-13.9,4.2-20.9,12.7-20.9
			c2.2,0,4.1,0.4,5.7,1.2c1.6,0.8,2.9,2.1,4,3.9c1,1.7,1.8,3.9,2.3,6.6S597.9,1215.4,597.9,1219.1z M590.1,1218.9
			c0-5.3-0.4-9-1.1-11.1c-0.7-2.1-2-3.2-3.8-3.2c-1.8,0-3,1-3.8,3.1c-0.7,2.1-1.1,5.7-1.1,10.9c0,5.2,0.4,8.8,1.1,10.9
			c0.8,2.1,2,3.1,3.8,3.1c1.8,0,3-1,3.7-3.1C589.8,1227.7,590.1,1224.1,590.1,1218.9z"/>
		<path class="st1" d="M617.3,1178.7h7.9l4.1,28l0.7,4.1c0.3,2.2,0.5,4.3,0.7,6.1l0.4,5.1c0,0.1,0.1,0.4,0.1,0.7
			c0,0.3,0.1,0.8,0.1,1.3l0.2-2c0.3-3.4,0.6-6.5,1-9.4c0.4-2.9,0.7-5.5,1.2-7.9l4.3-26.1h6.2l4.1,25.4c0.6,3.8,1.1,7.2,1.5,10.4
			c0.4,3.2,0.7,6.3,1,9.2c0.3-3.1,0.6-6,0.9-8.9c0.3-2.9,0.7-5.7,1-8.4l0.6-4l3.5-23.6h7.8l-10.7,60.3h-6.3l-4.3-26.1
			c0-0.1-0.1-0.5-0.2-1.3c-0.1-0.8-0.3-1.8-0.5-3.2l-0.8-6c-0.1-0.5-0.1-1.2-0.3-2.1s-0.2-2.1-0.4-3.6l-0.2-2.5
			c-0.1,0.6-0.1,1.1-0.2,1.6c-0.1,0.4-0.1,0.8-0.1,1.1c-0.1,1.7-0.2,3.1-0.3,4c-0.1,1-0.2,1.5-0.2,1.7l-0.8,5.8
			c-0.2,1.3-0.3,2.4-0.4,3.1c-0.1,0.8-0.2,1.2-0.2,1.4l-4.4,26.1h-6.5L617.3,1178.7z"/>
		<path class="st1" d="M683.1,1225.4h7c-0.5,9.5-4.5,14.3-11.7,14.3c-2.2,0-4-0.4-5.6-1.2c-1.5-0.8-2.8-2.1-3.8-3.8
			c-1-1.7-1.8-3.8-2.2-6.4c-0.5-2.6-0.7-5.7-0.7-9.3c0-7.1,1-12.4,3-15.9s5.1-5.2,9.2-5.2c8.1,0,12.1,7.1,12.1,21.4v0.9h-17.1
			c0,8.6,1.7,13,5.2,13C681.5,1233.2,683.1,1230.6,683.1,1225.4z M682.7,1214.9c-0.3-4.2-0.8-7-1.4-8.4c-0.7-1.5-1.8-2.2-3.3-2.2
			c-1.5,0-2.6,0.7-3.3,2.2c-0.7,1.3-1.1,4.1-1.4,8.4H682.7z"/>
		<path class="st1" d="M722.5,1178.7h6.3l12.9,60.3h-8l-2.3-11.8h-12l-2.3,11.8h-7.8L722.5,1178.7z M730.3,1221l-1.8-9.6
			c-1.2-6.5-2.2-13.5-2.9-20.9c-0.4,3.6-0.8,7.3-1.4,11c-0.6,3.7-1.2,7.7-2,11.8l-1.5,7.7H730.3z"/>
		<path class="st1" d="M746.1,1198.6h7.5v5c1.3-2.1,2.5-3.6,3.8-4.5s2.9-1.4,5-1.5v7.8c-0.5-0.1-1-0.1-1.3-0.1
			c-2.7,0-4.6,0.7-5.7,2.1c-1.1,1.4-1.7,3.7-1.7,7.1v24.5h-7.5V1198.6z"/>
		<path class="st1" d="M783.3,1225.4h7c-0.5,9.5-4.5,14.3-11.7,14.3c-2.2,0-4-0.4-5.6-1.2c-1.5-0.8-2.8-2.1-3.8-3.8
			c-1-1.7-1.8-3.8-2.2-6.4c-0.5-2.6-0.7-5.7-0.7-9.3c0-7.1,1-12.4,3-15.9s5.1-5.2,9.2-5.2c8.1,0,12.1,7.1,12.1,21.4v0.9h-17.1
			c0,8.6,1.7,13,5.2,13C781.8,1233.2,783.3,1230.6,783.3,1225.4z M783,1214.9c-0.3-4.2-0.8-7-1.4-8.4c-0.7-1.5-1.8-2.2-3.3-2.2
			c-1.5,0-2.6,0.7-3.3,2.2c-0.7,1.3-1.1,4.1-1.4,8.4H783z"/>
	</g>
</g>
</svg>
