<?xml version="1.0" encoding="utf-8"?>
<!-- Generator: Adobe Illustrator 22.1.0, SVG Export Plug-In . SVG Version: 6.00 Build 0)  -->
<svg version="1.1" id="レイヤー_1" xmlns="http://www.w3.org/2000/svg" xmlns:xlink="http://www.w3.org/1999/xlink" x="0px"
	 y="0px" viewBox="0 0 330 97" style="enable-background:new 0 0 330 97;" xml:space="preserve">
<style type="text/css">
	.st0{enable-background:new    ;}
	.st1{fill:#FFFFFF;}
</style>
<g id="ttl_main" transform="translate(-795 -647)">
	<g class="st0">
		<path class="st1" d="M796,665.7h7.9l4.1,28l0.7,4.1c0.3,2.2,0.5,4.3,0.7,6.1l0.4,5.1c0,0.1,0.1,0.4,0.1,0.7c0,0.3,0.1,0.8,0.1,1.3
			l0.2-2c0.3-3.4,0.6-6.5,1-9.4c0.4-2.9,0.7-5.5,1.2-7.9l4.3-26.1h6.2l4.1,25.4c0.6,3.8,1.1,7.2,1.5,10.4c0.4,3.2,0.7,6.3,1,9.2
			c0.3-3.1,0.6-6,0.9-8.9c0.3-2.9,0.7-5.7,1-8.4l0.6-4l3.5-23.6h7.8L832.5,726h-6.3l-4.3-26.1c0-0.1-0.1-0.5-0.2-1.3
			c-0.1-0.8-0.3-1.8-0.5-3.2l-0.8-6c-0.1-0.5-0.1-1.2-0.3-2.1s-0.2-2.1-0.4-3.6l-0.2-2.5c-0.1,0.6-0.1,1.1-0.2,1.6
			c-0.1,0.4-0.1,0.8-0.1,1.1c-0.1,1.7-0.2,3.1-0.3,4c-0.1,1-0.2,1.5-0.2,1.7l-0.8,5.8c-0.2,1.3-0.3,2.4-0.4,3.1
			c-0.1,0.8-0.2,1.2-0.2,1.4l-4.4,26.1h-6.5L796,665.7z"/>
		<path class="st1" d="M861.8,712.4h7c-0.5,9.5-4.5,14.3-11.7,14.3c-2.2,0-4-0.4-5.6-1.2c-1.5-0.8-2.8-2.1-3.8-3.8
			c-1-1.7-1.8-3.8-2.2-6.4c-0.5-2.6-0.7-5.7-0.7-9.3c0-7.1,1-12.4,3-15.9s5.1-5.2,9.2-5.2c8.1,0,12.1,7.1,12.1,21.4v0.9h-17.1
			c0,8.6,1.7,13,5.2,13C860.2,720.2,861.8,717.6,861.8,712.4z M861.4,701.9c-0.3-4.2-0.8-7-1.4-8.4c-0.7-1.5-1.8-2.2-3.3-2.2
			c-1.5,0-2.6,0.7-3.3,2.2c-0.7,1.3-1.1,4.1-1.4,8.4H861.4z"/>
		<path class="st1" d="M901.2,665.7h6.3l12.9,60.3h-8l-2.3-11.8h-12l-2.3,11.8h-7.8L901.2,665.7z M909,708l-1.8-9.6
			c-1.2-6.5-2.2-13.5-2.9-20.9c-0.4,3.6-0.8,7.3-1.4,11c-0.6,3.7-1.2,7.7-2,11.8l-1.5,7.7H909z"/>
		<path class="st1" d="M924.8,685.6h7.5v5c1.3-2.1,2.5-3.6,3.8-4.5s2.9-1.4,5-1.5v7.8c-0.5-0.1-1-0.1-1.3-0.1
			c-2.7,0-4.6,0.7-5.7,2.1c-1.1,1.4-1.7,3.7-1.7,7.1V726h-7.5V685.6z"/>
		<path class="st1" d="M962,712.4h7c-0.5,9.5-4.5,14.3-11.7,14.3c-2.2,0-4-0.4-5.6-1.2c-1.5-0.8-2.8-2.1-3.8-3.8
			c-1-1.7-1.8-3.8-2.2-6.4c-0.5-2.6-0.7-5.7-0.7-9.3c0-7.1,1-12.4,3-15.9s5.1-5.2,9.2-5.2c8.1,0,12.1,7.1,12.1,21.4v0.9h-17.1
			c0,8.6,1.7,13,5.2,13C960.5,720.2,962,717.6,962,712.4z M961.6,701.9c-0.3-4.2-0.8-7-1.4-8.4c-0.7-1.5-1.8-2.2-3.3-2.2
			c-1.5,0-2.6,0.7-3.3,2.2c-0.7,1.3-1.1,4.1-1.4,8.4H961.6z"/>
		<path class="st1" d="M988.1,665.7h26.4v7.1h-9.1V726h-8v-53.2h-9.4V665.7z"/>
		<path class="st1" d="M1019,665.7h10.7c4.4,0,7.7,1.1,9.9,3.2c2.7,2.7,4.1,6.9,4.1,12.5c0,4.3-0.7,7.8-2.2,10.4s-3.5,4.2-6.2,4.9
			l11.1,29.3h-8.2l-11.1-29.5V726h-8.1V665.7z M1027.1,692.4c3.2,0,5.4-0.7,6.7-2.2c1.3-1.5,2-3.9,2-7.4c0-1.9-0.1-3.5-0.4-4.8
			s-0.7-2.4-1.3-3.2c-0.6-0.8-1.3-1.4-2.3-1.8c-0.9-0.4-2-0.6-3.3-0.6h-1.4V692.4z"/>
		<path class="st1" d="M1052.7,665.7h8.1V726h-8.1V665.7z"/>
		<path class="st1" d="M1065.4,665.7h8l3.6,22.3l0.6,4l1.3,8.8c0.2,1.5,0.4,2.8,0.6,4.1c0.2,1.2,0.3,2.3,0.4,3.3l0.4,3
			c0.1-0.6,0.1-1.1,0.2-1.6c0.1-0.5,0.1-0.9,0.2-1.2l1.1-7l1.4-9.2c0.1-0.8,0.3-1.6,0.4-2.3s0.2-1.3,0.3-1.9l3.9-22.3h7.6
			l-11.8,60.3h-6.4L1065.4,665.7z"/>
		<path class="st1" d="M1099.7,665.7h21.6v6.9h-13.5v19.1h12v6.9h-12v20.6h13.5v6.9h-21.6V665.7z"/>
	</g>
</g>
</svg>
