<?xml version="1.0" encoding="utf-8"?>
<!-- Generator: Adobe Illustrator 22.1.0, SVG Export Plug-In . SVG Version: 6.00 Build 0)  -->
<svg version="1.1" id="レイヤー_1" xmlns="http://www.w3.org/2000/svg" xmlns:xlink="http://www.w3.org/1999/xlink" x="0px"
	 y="0px" viewBox="0 0 345 97" style="enable-background:new 0 0 345 97;" xml:space="preserve">
<style type="text/css">
	.st0{enable-background:new    ;}
	.st1{fill:#FFFFFF;}
</style>
<g id="ttl_other" transform="translate(-320 -8475)">
	<g class="st0">
		<path class="st1" d="M353.8,8525.3c0,10.7-1.2,18.2-3.6,22.7s-6.3,6.7-11.9,6.7c-5.9,0-10-2.4-12.4-7.2
			c-2.4-4.7-3.6-13.1-3.6-25.1c0-10.7,1.2-18.3,3.5-22.8c2.4-4.5,6.4-6.7,12-6.7c5.1,0,8.8,1.7,11.2,5.2c1.6,2.3,2.8,5.6,3.5,9.9
			C353.5,8511.9,353.8,8517.7,353.8,8525.3z M345.3,8526.2c0-10.4-0.5-17.4-1.4-20.8c-0.9-3.4-2.9-5.2-5.7-5.2s-4.8,1.6-5.8,4.7
			c-0.9,3.2-1.4,9.6-1.4,19.1c0,8.8,0.5,14.9,1.5,18.4c1,3.2,2.9,4.8,5.7,4.8c2.7,0,4.6-1.5,5.6-4.5
			C344.8,8539.8,345.3,8534.3,345.3,8526.2z"/>
		<path class="st1" d="M362.4,8502.2h7.5v11.3h4.1v5.9h-4.1v34.5h-7.5v-34.5h-4.1v-5.9h4.1V8502.2z"/>
		<path class="st1" d="M379.2,8487.6h7.5v30.6c2.1-3.5,4.9-5.3,8.3-5.3c3.3,0,5.6,1.3,7,3.9c0.8,1.5,1.2,4.3,1.2,8.5v28.8h-7.5v-27
			c0-2.7-0.3-4.7-1-5.8s-1.8-1.7-3.4-1.7c-0.9,0-1.6,0.2-2.2,0.4c-0.6,0.3-1.1,0.8-1.4,1.4c-0.4,0.7-0.6,1.5-0.8,2.6
			c-0.2,1.1-0.3,2.4-0.3,3.9v26.1h-7.5L379.2,8487.6L379.2,8487.6z"/>
		<path class="st1" d="M425.2,8540.4h7c-0.5,9.5-4.5,14.3-11.7,14.3c-2.2,0-4-0.4-5.6-1.2c-1.5-0.8-2.8-2.1-3.8-3.8
			s-1.8-3.8-2.2-6.4c-0.5-2.6-0.7-5.7-0.7-9.3c0-7.1,1-12.4,3-15.9s5.1-5.2,9.2-5.2c8.1,0,12.1,7.1,12.1,21.4v0.9h-17.1
			c0,8.6,1.7,13,5.2,13C423.7,8548.2,425.2,8545.6,425.2,8540.4z M424.9,8529.9c-0.3-4.2-0.8-7-1.4-8.4c-0.7-1.5-1.8-2.2-3.3-2.2
			s-2.6,0.7-3.3,2.2c-0.7,1.3-1.1,4.1-1.4,8.4H424.9z"/>
		<path class="st1" d="M439.1,8513.6h7.5v5c1.3-2.1,2.5-3.6,3.8-4.5s2.9-1.4,5-1.5v7.8c-0.5-0.1-1-0.1-1.3-0.1
			c-2.7,0-4.6,0.7-5.7,2.1c-1.1,1.4-1.7,3.7-1.7,7.1v24.5h-7.5L439.1,8513.6L439.1,8513.6z"/>
		<path class="st1" d="M477.5,8493.7h10.7c5.2,0,8.9,1.3,11.2,3.9c2.3,2.6,3.5,6.8,3.5,12.5c0,8-2.4,13.2-7.1,15.5
			c-2.4,1.1-5.8,1.6-10.3,1.6v26.8h-8.1L477.5,8493.7L477.5,8493.7z M485.6,8520.3c3.4,0,5.7-0.7,7-2c1.3-1.4,2-3.8,2-7.3
			c0-3.6-0.6-6.2-1.9-7.9c-1.2-1.7-3.2-2.5-5.9-2.5h-1.1v19.7H485.6z"/>
		<path class="st1" d="M508.8,8513.6h7.5v5c1.3-2.1,2.5-3.6,3.8-4.5s2.9-1.4,5-1.5v7.8c-0.5-0.1-1-0.1-1.3-0.1
			c-2.7,0-4.6,0.7-5.7,2.1c-1.1,1.4-1.7,3.7-1.7,7.1v24.5h-7.5L508.8,8513.6L508.8,8513.6z"/>
		<path class="st1" d="M553.2,8534.1c0,13.7-4.2,20.5-12.7,20.5s-12.7-6.9-12.7-20.8c0-13.9,4.2-20.9,12.7-20.9
			c2.2,0,4.1,0.4,5.7,1.2c1.6,0.8,2.9,2.1,4,3.9c1,1.7,1.8,3.9,2.3,6.6S553.2,8530.4,553.2,8534.1z M545.5,8533.9
			c0-5.3-0.4-9-1.1-11.1c-0.7-2.1-2-3.2-3.8-3.2s-3,1-3.8,3.1c-0.7,2.1-1.1,5.7-1.1,10.9s0.4,8.8,1.1,10.9c0.8,2.1,2,3.1,3.8,3.1
			s3-1,3.7-3.1C545.1,8542.7,545.5,8539.1,545.5,8533.9z"/>
		<path class="st1" d="M562.7,8496.4c1.4,0,2.5,0.5,3.5,1.5s1.5,2.2,1.5,3.6c0,1.4-0.5,2.6-1.5,3.6s-2.2,1.5-3.6,1.5
			s-2.6-0.5-3.6-1.5s-1.4-2.2-1.4-3.6c0-1.4,0.5-2.5,1.5-3.5C560.1,8496.9,561.3,8496.4,562.7,8496.4z M559.2,8513.6h7.5v57h-7.5
			V8513.6z"/>
		<path class="st1" d="M589.7,8540.4h7c-0.5,9.5-4.5,14.3-11.7,14.3c-2.2,0-4-0.4-5.6-1.2c-1.5-0.8-2.8-2.1-3.8-3.8
			s-1.8-3.8-2.2-6.4c-0.5-2.6-0.7-5.7-0.7-9.3c0-7.1,1-12.4,3-15.9s5.1-5.2,9.2-5.2c8.1,0,12.1,7.1,12.1,21.4v0.9h-17.1
			c0,8.6,1.7,13,5.2,13C588.1,8548.2,589.7,8545.6,589.7,8540.4z M589.3,8529.9c-0.3-4.2-0.8-7-1.4-8.4c-0.7-1.5-1.8-2.2-3.3-2.2
			s-2.6,0.7-3.3,2.2c-0.7,1.3-1.1,4.1-1.4,8.4H589.3z"/>
		<path class="st1" d="M620.1,8514.4v7.6c-1-1.3-2.3-1.9-3.8-1.9c-4.1,0-6.2,4.5-6.2,13.4c0,9.5,2,14.2,6.1,14.2
			c1.1,0,2.4-0.5,3.8-1.5v7c-2,1-4,1.6-6,1.6c-8,0-12-6.8-12-20.5c0-7.3,1-12.6,3-16.1s5.1-5.2,9.2-5.2
			C616.2,8512.9,618.2,8513.4,620.1,8514.4z"/>
		<path class="st1" d="M628.3,8502.2h7.5v11.3h4.1v5.9h-4.1v34.5h-7.5v-34.5h-4.1v-5.9h4.1V8502.2z"/>
		<g>
			<path class="st1" d="M659.8,8513.7v7c-1.8-1.4-3.7-2-5.7-2c-0.7,0-1.3,0.1-1.9,0.4c-0.6,0.2-1.1,0.6-1.5,1
				c-0.4,0.4-0.8,0.9-1,1.4c-0.2,0.6-0.4,1.2-0.4,1.8c0,1.9,1.7,4.2,5.2,6.9c1.4,1.1,2.6,2.1,3.5,3s1.7,1.8,2.1,2.7
				c1,1.6,1.5,3.7,1.5,6.2c0,3.6-1.1,6.5-3.2,8.7c-2.1,2.2-4.9,3.2-8.4,3.2c-2.2,0-4.3-0.6-6.6-1.9v-7.2c2.2,1.6,4.2,2.4,6.1,2.4
				c3.4,0,5.1-1.7,5.1-5c0-1.2-0.3-2.3-0.9-3.2c-0.3-0.4-0.7-1-1.4-1.5s-1.4-1.2-2.3-2c-3.2-2.4-5.3-4.5-6.4-6.2
				c-1.1-1.7-1.6-3.8-1.6-6.2c0-3.3,1-5.9,3-8c2-2.1,4.7-3.1,7.9-3.1C655.5,8511.9,657.7,8512.5,659.8,8513.7z"/>
		</g>
	</g>
</g>
</svg>
