<?xml version="1.0" encoding="utf-8"?>
<!-- Generator: Adobe Illustrator 22.1.0, SVG Export Plug-In . SVG Version: 6.00 Build 0)  -->
<svg version="1.1" id="レイヤー_1" xmlns="http://www.w3.org/2000/svg" xmlns:xlink="http://www.w3.org/1999/xlink" x="0px"
	 y="0px" viewBox="0 0 308.7 97" style="enable-background:new 0 0 308.7 97;" xml:space="preserve">
<style type="text/css">
	.st0{fill:#FFFFFF;}
</style>
<g>
	<path class="st0" d="M3.2,20.2h7.9l4.1,28l0.7,4.1c0.3,2.2,0.5,4.3,0.7,6.1l0.4,5.1c0,0.1,0.1,0.4,0.1,0.7c0,0.3,0.1,0.8,0.1,1.3
		l0.2-2c0.3-3.4,0.6-6.5,1-9.4c0.4-2.9,0.7-5.5,1.2-7.9l4.3-26.1h6.2l4.1,25.4c0.6,3.8,1.1,7.2,1.5,10.4c0.4,3.2,0.7,6.3,1,9.2
		c0.3-3.1,0.6-6,0.9-8.9c0.3-2.9,0.7-5.7,1-8.4l0.6-4l3.5-23.6h7.8L39.7,80.5h-6.3l-4.3-26.1c0-0.1-0.1-0.5-0.2-1.3
		c-0.1-0.8-0.3-1.8-0.5-3.2l-0.8-6c-0.1-0.5-0.1-1.2-0.3-2.1s-0.2-2.1-0.4-3.6l-0.2-2.5c-0.1,0.6-0.1,1.1-0.2,1.6
		c-0.1,0.4-0.1,0.8-0.1,1.1c-0.1,1.7-0.2,3.1-0.3,4c-0.1,1-0.2,1.5-0.2,1.7l-0.8,5.8c-0.2,1.3-0.3,2.4-0.4,3.1
		c-0.1,0.8-0.2,1.2-0.2,1.4l-4.4,26.1h-6.5L3.2,20.2z"/>
	<path class="st0" d="M54.7,14.1h7.5v30.6c2.1-3.5,4.9-5.3,8.3-5.3c3.3,0,5.6,1.3,7,3.9c0.8,1.5,1.2,4.3,1.2,8.5v28.8h-7.5l0-27
		c0-2.7-0.3-4.7-1-5.8c-0.7-1.1-1.8-1.7-3.4-1.7c-0.9,0-1.6,0.2-2.2,0.4c-0.6,0.3-1.1,0.8-1.4,1.4c-0.4,0.7-0.6,1.5-0.8,2.6
		c-0.2,1.1-0.3,2.4-0.3,3.9v26.1h-7.5V14.1z"/>
	<path class="st0" d="M108.6,40.1v40.4h-7.5v-5.2c-1.1,2.2-2.1,3.7-3.2,4.6c-1.1,0.8-2.5,1.2-4.2,1.2c-3.4,0-5.8-1.7-7.4-5.2
		S84,67.2,84,59.8c0-7,0.8-12.2,2.3-15.4c1.6-3.3,4-4.9,7.4-4.9c3.1,0,5.5,1.7,7.4,5.2v-4.6H108.6z M91.7,60.1c0,5.3,0.4,9,1.1,11.1
		c0.7,2.1,2,3.2,3.8,3.2c1.7,0,2.9-1.1,3.6-3.3c0.8-2.3,1.1-6,1.1-10.8c0-4.9-0.4-8.5-1.1-10.9c-0.8-2.2-2-3.3-3.6-3.3
		c-1.8,0-3,1-3.8,3.1C92.1,51.2,91.7,54.8,91.7,60.1z"/>
	<path class="st0" d="M118,28.8h7.5v11.3h4.1V46h-4.1v34.5H118V46h-4.1v-5.9h4.1V28.8z"/>
	<path class="st0" d="M147.3,20.2h7.9l4.1,28l0.7,4.1c0.3,2.2,0.5,4.3,0.7,6.1l0.4,5.1c0,0.1,0.1,0.4,0.1,0.7c0,0.3,0.1,0.8,0.1,1.3
		l0.2-2c0.3-3.4,0.6-6.5,1-9.4c0.4-2.9,0.7-5.5,1.2-7.9l4.3-26.1h6.2l4.1,25.4c0.6,3.8,1.1,7.2,1.5,10.4c0.4,3.2,0.7,6.3,1,9.2
		c0.3-3.1,0.6-6,0.9-8.9c0.3-2.9,0.7-5.7,1-8.4l0.6-4l3.5-23.6h7.8l-10.7,60.3h-6.3l-4.3-26.1c0-0.1-0.1-0.5-0.2-1.3
		c-0.1-0.8-0.3-1.8-0.5-3.2l-0.8-6c-0.1-0.5-0.1-1.2-0.3-2.1s-0.2-2.1-0.4-3.6l-0.2-2.5c-0.1,0.6-0.1,1.1-0.2,1.6
		c-0.1,0.4-0.1,0.8-0.1,1.1c-0.1,1.7-0.2,3.1-0.3,4c-0.1,1-0.2,1.5-0.2,1.7l-0.8,5.8c-0.2,1.3-0.3,2.4-0.4,3.1
		c-0.1,0.8-0.2,1.2-0.2,1.4l-4.4,26.1h-6.5L147.3,20.2z"/>
	<path class="st0" d="M213.1,66.9h7c-0.5,9.5-4.5,14.3-11.7,14.3c-2.2,0-4-0.4-5.6-1.2c-1.5-0.8-2.8-2.1-3.8-3.8
		c-1-1.7-1.8-3.8-2.2-6.4c-0.5-2.6-0.7-5.7-0.7-9.3c0-7.1,1-12.4,3-15.9s5.1-5.2,9.2-5.2c8.1,0,12.1,7.1,12.1,21.4v0.9h-17.1
		c0,8.6,1.7,13,5.2,13C211.5,74.7,213.1,72.1,213.1,66.9z M212.7,56.4c-0.3-4.2-0.8-7-1.4-8.4c-0.7-1.5-1.8-2.2-3.3-2.2
		c-1.5,0-2.6,0.7-3.3,2.2c-0.7,1.3-1.1,4.1-1.4,8.4H212.7z"/>
	<path class="st0" d="M244,20.2h10c3,0,5.6,0.3,7.7,1c1.9,0.7,3.6,1.8,5.2,3.5c2.3,2.5,3.9,5.8,4.8,9.8c1,3.9,1.4,9.4,1.4,16.7
		c0,6.6-0.5,12.1-1.6,16.2c-1,4-2.8,7.1-5.2,9.2c-2.9,2.6-8.2,3.9-15.8,3.9H244V20.2z M252.1,73.4c4.9,0,8.3-1.5,9.9-4.5
		c1.7-3,2.6-8.8,2.6-17.5c0-9.3-0.8-15.7-2.5-19.2c-1.6-3.5-4.6-5.2-9-5.2h-1V73.4z"/>
	<path class="st0" d="M304.6,60.6c0,13.7-4.2,20.5-12.7,20.5c-8.5,0-12.7-6.9-12.7-20.8c0-13.9,4.2-20.9,12.7-20.9
		c2.2,0,4.1,0.4,5.7,1.2c1.6,0.8,2.9,2.1,4,3.9c1,1.7,1.8,3.9,2.3,6.6C304.4,53.8,304.6,57,304.6,60.6z M296.9,60.4
		c0-5.3-0.4-9-1.1-11.1c-0.7-2.1-2-3.2-3.8-3.2c-1.8,0-3,1-3.8,3.1c-0.7,2.1-1.1,5.7-1.1,10.9c0,5.2,0.4,8.8,1.1,10.9
		c0.8,2.1,2,3.1,3.8,3.1c1.8,0,3-1,3.7-3.1C296.5,69.2,296.9,65.6,296.9,60.4z"/>
</g>
</svg>
